<?xml version="1.0" standalone="no"?>
<!DOCTYPE svg PUBLIC "-//W3C//DTD SVG 20010904//EN" "http://www.w3.org/TR/2001/REC-SVG-20010904/DTD/svg10.dtd">
<!-- Created using Krita: https://krita.org -->
<svg xmlns="http://www.w3.org/2000/svg" 
    xmlns:xlink="http://www.w3.org/1999/xlink"
    xmlns:krita="http://krita.org/namespaces/svg/krita"
    xmlns:sodipodi="http://sodipodi.sourceforge.net/DTD/sodipodi-0.dtd"
    width="184.32pt"
    height="184.32pt"
    viewBox="0 0 184.32 184.32">
<defs/>
<rect id="shape0" transform="matrix(0.72 0 0 0.72 20.5416 20.0736)" fill="#002b36" stroke-opacity="0" stroke="#000000" stroke-width="0" stroke-linecap="square" stroke-linejoin="bevel" width="199.62" height="199.62" rx="13.14" ry="13.14"/><path id="shape1" transform="matrix(0.72 0 0 0.72 19.1087976206245 18.6264)" fill="#34cac0" stroke-opacity="0" stroke="#000000" stroke-width="0" stroke-linecap="square" stroke-linejoin="bevel" d="M188.46 4C191.412 4.00263 194.245 5.17626 196.334 7.2616C198.423 9.34695 199.602 12.1782 199.61 15.13L199.61 188.48C199.607 191.435 198.431 194.272 196.341 196.361C194.252 198.451 191.415 199.627 188.46 199.63L15.13 199.63C12.1765 199.625 9.34265 198.447 7.25515 196.358C5.16765 194.268 3.99265 191.433 3.99 188.48L3.99 15.13C3.99793 12.18 5.17526 9.35019 7.2622 7.26513C9.34913 5.18007 12.18 4.00528 15.13 4L188.46 4M188.46 0L15.13 0C11.1188 -3.55271e-15 7.26781 1.59514 4.43148 4.43147C1.59514 7.26781 3.30469e-06 11.1188 3.30469e-06 15.13L3.30469e-06 188.48C-0.00175268 191.137 0.696317 193.748 2.0237 196.049C3.35109 198.351 5.26155 200.262 7.56212 201.591C9.86268 202.92 12.4732 203.62 15.13 203.62L188.46 203.62C191.117 203.62 193.727 202.92 196.028 201.591C198.328 200.262 200.239 198.351 201.566 196.049C202.894 193.748 203.592 191.137 203.59 188.48L203.59 15.13C203.587 11.1205 201.991 7.27212 199.155 4.43794C196.319 1.60376 192.469 0.00999912 188.46 0.01Z" sodipodi:nodetypes="ccccccccccccccccccccccccccccc"/><path id="shape2" transform="matrix(1.13975337126883 0 0 1.17160146534129 75.6399760441674 46.08)" fill="#37c9be" stroke-opacity="0" stroke="#000000" stroke-width="0" stroke-linecap="square" stroke-linejoin="bevel" d="M16 78.6616L0 68.0316C6.48 48.7616 4.32 27.9516 5.94 7.44156C6.45 0.951561 8.44 -0.258439 17.1 0.0415609C23.42 0.271561 24.77 1.85156 24.87 8.13156C25.12 22.3316 25.12 36.5616 26.12 50.7116C26.53 56.3816 29.33 61.9016 31.19 68.0016Z" sodipodi:nodetypes="cccccccc"/><path id="shape3" transform="matrix(1.13975337126883 0 0 1.17160146534129 109.763970975147 51.5883556233582)" fill="#37c9be" stroke-opacity="0" stroke="#000000" stroke-width="0" stroke-linecap="square" stroke-linejoin="bevel" d="M0.0201939 0C23.4402 3.06 46.5102 30.82 42.9102 50.82C35.1502 50.96 34.7702 50.58 34.2402 43.55C33.7402 36.91 32.8702 30.36 27.1002 24.62L30.2102 46.7C20.1502 44.52 11.3402 42.76 2.65019 40.55C1.45019 40.25 0.160194 37.77 0.130194 36.28C-0.0698061 24.32 0.0201939 12.38 0.0201939 0Z" sodipodi:nodetypes="cccccccc"/><path id="shape4" transform="matrix(1.13975337126883 0 0 1.17160146534129 29.2761399373758 51.5883556233582)" fill="#37c9be" stroke-opacity="0" stroke="#000000" stroke-width="0" stroke-linecap="square" stroke-linejoin="bevel" d="M40.2188 0L40.2188 38.58L0.00883217 45.91C-0.441168 31.59 16.3488 4.27 40.2188 0Z" sodipodi:nodetypes="cccc"/><path id="shape5" transform="matrix(1.13975337126883 0 0 1.17160146534129 112.340565090752 104.591605915398)" fill="#37c9be" stroke-opacity="0" stroke="#000000" stroke-width="0" stroke-linecap="square" stroke-linejoin="bevel" d="M39.8795 10.8L39.8795 21.9C33.8195 19.59 28.3495 17.3 22.7295 15.42C17.9995 13.83 13.1795 12.08 8.24953 11.53C1.35953 10.75 -0.290465 7.13 0.0395346 0Z" sodipodi:nodetypes="cccccc"/><path id="shape6" transform="matrix(1.13975337126883 0 0 1.17160146534129 25.2238862559241 104.650185988665)" fill="#37c9be" stroke-opacity="0" stroke="#000000" stroke-width="0" stroke-linecap="square" stroke-linejoin="bevel" d="M1.41421 15.25C-1.25579 8.62 -0.46579 6.98 6.56421 5.65C16.0709 3.83667 25.5942 2.1 35.1342 0.44C37.2781 0.177282 39.4345 0.0304019 41.5942 0C42.0742 8 41.5942 8 34.5342 9.15C23.6042 10.85 12.7742 13.12 1.41421 15.25Z" sodipodi:nodetypes="cccccc"/>
</svg>
