<?xml version="1.0" encoding="UTF-8" standalone="no"?>
<!-- Created using Krita: https://krita.org -->

<svg
   width="48pt"
   height="48.007072pt"
   viewBox="0 0 47.999998 48.007071"
   version="1.1"
   id="svg1"
   xmlns="http://www.w3.org/2000/svg"
   xmlns:svg="http://www.w3.org/2000/svg">
  <defs
     id="defs1" />
  <rect
     id="shape0"
     fill="#002b36"
     stroke-opacity="0"
     stroke="#000000"
     stroke-width="0"
     stroke-linecap="square"
     stroke-linejoin="bevel"
     width="47.063999"
     height="47.063999"
     rx="3.097991"
     ry="3.097991"
     x="0.469179"
     y="0.47389412" />
  <path
     id="shape1"
     fill="#34cac0"
     stroke-opacity="0"
     stroke="#000000"
     stroke-width="0"
     stroke-linecap="square"
     stroke-linejoin="bevel"
     d="m 44.43283,0.943072 c 0.695987,6.2e-4 1.363918,0.277324 1.856437,0.768981 0.49252,0.491658 0.77049,1.159176 0.772376,1.855116 v 40.870376 c -7.07e-4,0.696694 -0.27797,1.365568 -0.770725,1.858087 -0.49252,0.492755 -1.161393,0.770019 -1.858088,0.770726 H 3.5671698 C 2.8708288,47.065158 2.2026978,46.787444 1.7105328,46.294925 1.2183668,45.80217 0.94133978,45.133768 0.94071478,44.437545 V 3.567169 C 0.94261478,2.871654 1.2201608,2.204475 1.7121948,1.712885 2.2042258,1.221295 2.8716538,0.944317 3.5671698,0.943072 H 44.43283 M 44.43283,0 H 3.5671698 C 2.6214568,0 1.7135168,0.376083 1.0448018,1.044799 0.37608378,1.713517 7.7911973e-7,2.621457 7.7911973e-7,3.567169 V 44.437545 C -4.1322088e-4,45.063981 0.16416978,45.679571 0.47712378,46.222073 c 0.312956,0.542738 0.76338202,0.99329 1.30578202,1.306626 0.542399,0.313335 1.157876,0.478373 1.784264,0.478373 H 44.43283 c 0.626436,0 1.24179,-0.165038 1.784292,-0.478373 0.542267,-0.313336 0.992819,-0.763888 1.305683,-1.306626 C 47.835905,45.679571 48.000471,45.063981 48,44.437545 V 3.567169 C 47.999292,2.621858 47.623007,1.714533 46.954369,1.046324 46.285731,0.378115 45.378024,0.002357 44.43283,0.002358 Z" />
  <path
     id="shape2"
     fill="#37c9be"
     stroke-opacity="0"
     stroke="#000000"
     stroke-width="0"
     stroke-linecap="square"
     stroke-linejoin="bevel"
     d="m 24.482942,39.168146 -5.971496,-4.078171 c 2.418456,-7.392884 1.612304,-15.376586 2.216918,-23.245208 0.190341,-2.489871 0.933046,-2.954084 4.165118,-2.83899 2.358741,0.08824 2.862586,0.694401 2.899908,3.103707 0.09331,5.447807 0.09331,10.907109 0.466523,16.335719 0.15302,2.17528 1.198032,4.293014 1.892218,6.633263 z" />
  <path
     id="shape3"
     fill="#37c9be"
     stroke-opacity="0"
     stroke="#000000"
     stroke-width="0"
     stroke-linecap="square"
     stroke-linejoin="bevel"
     d="m 29.693072,10.793574 c 8.74078,1.173961 17.350931,11.824011 16.007345,19.496958 -2.896176,0.05371 -3.037999,-0.09208 -3.235805,-2.789117 -0.186609,-2.547418 -0.511309,-5.060308 -2.66478,-7.262444 l 1.16071,8.470934 c -3.754579,-0.836352 -7.042634,-1.511571 -10.285906,-2.359432 -0.447863,-0.115094 -0.929313,-1.066539 -0.940509,-1.638174 -0.07464,-4.588422 -0.04106,-9.169171 -0.04106,-13.918725 z" />
  <path
     id="shape4"
     fill="#37c9be"
     stroke-opacity="0"
     stroke="#000000"
     stroke-width="0"
     stroke-linecap="square"
     stroke-linejoin="bevel"
     d="M 18.339753,10.793574 V 25.594688 L 3.3326488,28.406823 C 3.1647008,22.912993 9.4310278,12.431748 18.339753,10.793574 Z" />
  <path
     id="shape5"
     fill="#37c9be"
     stroke-opacity="0"
     stroke="#000000"
     stroke-width="0"
     stroke-linecap="square"
     stroke-linejoin="bevel"
     d="m 45.413023,32.293171 v 4.258485 c -2.261704,-0.886225 -4.303209,-1.764777 -6.400697,-2.486034 -1.765324,-0.61 -3.564237,-1.281383 -5.404193,-1.492389 -2.571476,-0.299245 -3.187284,-1.688048 -3.064122,-4.423454 z" />
  <path
     id="shape6"
     fill="#37c9be"
     stroke-opacity="0"
     stroke="#000000"
     stroke-width="0"
     stroke-linecap="square"
     stroke-linejoin="bevel"
     d="m 2.5302288,34.019584 c -0.996493,-2.543582 -0.70165,-3.172764 1.922076,-3.683015 3.548072,-0.695679 7.1023442,-1.361948 10.6628492,-1.998802 0.800143,-0.100791 1.604951,-0.157142 2.410991,-0.168805 0.179145,3.069179 0,3.069179 -2.634922,3.510373 -4.079279,0.652201 -8.1212352,1.52308 -12.3609942,2.340249 z" />
</svg>
