<svg version="1.1" id="Layer_1" xmlns="http://www.w3.org/2000/svg" xmlns:xlink="http://www.w3.org/1999/xlink" x="0px" y="0px"
	 width="100%" viewBox="0 0 196 196" enable-background="new 0 0 196 196" xml:space="preserve">
<path fill="#013745" opacity="1.000000" stroke="none" 
	d="
M118.000000,197.000000 
	C78.691444,197.000000 39.882889,197.000000 1.037167,197.000000 
	C1.037167,131.733154 1.037167,66.466270 1.037167,1.099698 
	C66.225044,1.099698 131.450287,1.099698 196.837769,1.099698 
	C196.837769,66.333008 196.837769,131.666473 196.837769,197.000000 
	C170.799896,197.000000 144.649948,197.000000 118.000000,197.000000 
M158.075775,72.712807 
	C154.451736,69.618073 150.827698,66.523331 147.223831,63.445816 
	C155.388687,53.057220 162.413681,43.977474 169.656113,35.074612 
	C170.611588,33.900055 172.615265,33.312538 174.239288,32.995964 
	C179.693008,31.932869 183.343521,27.571085 183.104630,22.048941 
	C182.891281,17.117203 179.028381,13.069841 173.938034,12.444618 
	C168.835770,11.817933 164.135208,15.168178 162.780060,20.349127 
	C162.409149,21.767223 162.339584,23.631699 161.399490,24.476254 
	C152.411560,32.550716 143.266327,40.450047 133.726974,48.783329 
	C130.373657,45.217484 127.756798,41.605339 124.337646,39.079037 
	C121.898659,37.276936 118.388840,36.153091 115.343788,36.124592 
	C110.877472,36.082783 108.080612,39.867199 108.679497,43.704571 
	C109.278580,47.543224 112.403419,49.999065 116.816429,48.866386 
	C122.218567,47.479836 125.273918,49.876110 128.626282,54.608585 
	C126.158905,56.111931 123.676346,58.881016 121.572014,58.618481 
	C118.237740,58.202488 116.143112,58.928509 114.156830,61.220535 
	C90.717323,88.268250 67.132332,115.192017 43.922249,142.435181 
	C36.682129,150.933380 30.454510,160.294174 23.100546,170.148300 
	C25.324230,169.938156 26.295900,170.128647 26.905457,169.744507 
	C32.247269,166.378220 37.968178,163.433472 42.748703,159.385834 
	C73.483154,133.363113 104.019684,107.106407 134.553467,80.847763 
	C135.702682,79.859451 137.095551,77.782677 136.771042,76.689011 
	C135.336166,71.853149 138.699127,69.915077 141.590149,67.493050 
	C145.969254,70.373459 148.272781,73.848328 146.900177,79.586197 
	C145.997284,83.360535 148.099152,86.523102 152.282288,87.151131 
	C156.486450,87.782341 159.161209,85.277840 159.720596,81.469475 
	C160.103714,78.861282 159.000107,76.034714 158.075775,72.712807 
z"/>
<path fill="#F6F6F8" opacity="1.000000" stroke="none" 
	d="
M158.318451,73.009293 
	C159.000107,76.034714 160.103714,78.861282 159.720596,81.469475 
	C159.161209,85.277840 156.486450,87.782341 152.282288,87.151131 
	C148.099152,86.523102 145.997284,83.360535 146.900177,79.586197 
	C148.272781,73.848328 145.969254,70.373459 141.590149,67.493050 
	C138.699127,69.915077 135.336166,71.853149 136.771042,76.689011 
	C137.095551,77.782677 135.702682,79.859451 134.553467,80.847763 
	C104.019684,107.106407 73.483154,133.363113 42.748703,159.385834 
	C37.968178,163.433472 32.247269,166.378220 26.905457,169.744507 
	C26.295900,170.128647 25.324230,169.938156 23.100546,170.148300 
	C30.454510,160.294174 36.682129,150.933380 43.922249,142.435181 
	C67.132332,115.192017 90.717323,88.268250 114.156830,61.220535 
	C116.143112,58.928509 118.237740,58.202488 121.572014,58.618481 
	C123.676346,58.881016 126.158905,56.111931 128.626282,54.608585 
	C125.273918,49.876110 122.218567,47.479836 116.816429,48.866386 
	C112.403419,49.999065 109.278580,47.543224 108.679497,43.704571 
	C108.080612,39.867199 110.877472,36.082783 115.343788,36.124592 
	C118.388840,36.153091 121.898659,37.276936 124.337646,39.079037 
	C127.756798,41.605339 130.373657,45.217484 133.726974,48.783329 
	C143.266327,40.450047 152.411560,32.550716 161.399490,24.476254 
	C162.339584,23.631699 162.409149,21.767223 162.780060,20.349127 
	C164.135208,15.168178 168.835770,11.817933 173.938034,12.444618 
	C179.028381,13.069841 182.891281,17.117203 183.104630,22.048941 
	C183.343521,27.571085 179.693008,31.932869 174.239288,32.995964 
	C172.615265,33.312538 170.611588,33.900055 169.656113,35.074612 
	C162.413681,43.977474 155.388687,53.057220 147.223831,63.445816 
	C150.827698,66.523331 154.451736,69.618073 158.318451,73.009293 
z"/>
</svg>